<?xml version="1.0" encoding="UTF-8" standalone="no"?>
<svg
   xmlns:dc="http://purl.org/dc/elements/1.1/"
   xmlns:cc="http://creativecommons.org/ns#"
   xmlns:rdf="http://www.w3.org/1999/02/22-rdf-syntax-ns#"
   xmlns:svg="http://www.w3.org/2000/svg"
   xmlns="http://www.w3.org/2000/svg"
   xmlns:sodipodi="http://sodipodi.sourceforge.net/DTD/sodipodi-0.dtd"
   xmlns:inkscape="http://www.inkscape.org/namespaces/inkscape"
   width="126"
   height="103"
   id="svg4327"
   version="1.1"
   inkscape:version="0.48.4 r9939"
   sodipodi:docname="Untitled (1).svg">
  <metadata
     id="metadata4337">
    <rdf:RDF>
      <cc:Work
         rdf:about="">
        <dc:format>image/svg+xml</dc:format>
        <dc:type
           rdf:resource="http://purl.org/dc/dcmitype/StillImage" />
        <dc:title></dc:title>
      </cc:Work>
    </rdf:RDF>
  </metadata>
  <defs
     id="defs4335" />
  <sodipodi:namedview
     pagecolor="#ffffff"
     bordercolor="#666666"
     borderopacity="1"
     objecttolerance="10"
     gridtolerance="10"
     guidetolerance="10"
     inkscape:pageopacity="0"
     inkscape:pageshadow="2"
     inkscape:window-width="1707"
     inkscape:window-height="900"
     id="namedview4333"
     showgrid="false"
     inkscape:zoom="3.2100403"
     inkscape:cx="0.39416331"
     inkscape:cy="20.563287"
     inkscape:window-x="-8"
     inkscape:window-y="-8"
     inkscape:window-maximized="1"
     inkscape:current-layer="svg4327" />
  <path
     style="fill:#010101; stroke:none;"
     d="M90 5C93.0623 21.5539 81.9229 36.9613 68 45C67.9739 35.5572 67.0138 23.6089 60.6096 16.0934C47.626 0.856689 25.1986 9.84863 18 26C34.0416 23.0219 51.5777 32.8315 58 48C48.4674 48.001 37.9524 48.9162 30.1736 55.044C13.5966 68.1026 23.7982 89.2128 39 98C39 78.8686 46.174 68.7675 61 57C61.2069 67.0227 62.3357 79.1215 69.3287 86.9066C82.124 101.151 103.736 92.5763 111 77C93.4403 77 80.5605 70.2846 71 55L72 54C81.8637 55.1018 94.9164 52.5992 101.787 44.9568C113.673 31.7352 105.649 11.0628 90 5z"
     id="path4331" />
  <path
     sodipodi:type="arc"
     style="fill:#ffffff;fill-opacity:1;fill-rule:evenodd;stroke:#000000;stroke-width:8.57961328;stroke-linecap:butt;stroke-linejoin:miter;stroke-miterlimit:4;stroke-opacity:1;stroke-dasharray:none"
     id="path4339"
     sodipodi:cx="-23.519955"
     sodipodi:cy="32.595901"
     sodipodi:rx="14.797322"
     sodipodi:ry="14.797322"
     d="m -8.7226324,32.595901 a 14.797322,14.797322 0 1 1 -29.5946446,0 14.797322,14.797322 0 1 1 29.5946446,0 z"
     transform="matrix(1.1655537,0,0,1.1655537,91.557453,13.606504)" />
</svg>
